<svg xmlns="http://www.w3.org/2000/svg" width="83" height="91" viewBox="0 0 83 91" fill="none">
<path d="M64 51.2385L29 86M29 51L64 85.7615" stroke="#4987FF" stroke-width="9" stroke-linecap="round"/>
<path fill-rule="evenodd" clip-rule="evenodd" d="M34.2934 0C33.3554 0.00500143 32.1827 0.00940307 30.0922 0.00940307C21.4722 0.00940307 14.3148 2.62235 8.61995 7.84826C5.92783 10.3168 3.81815 13.2842 2.29089 16.7507C0.763629 20.1908 0 23.9724 0 28.0954C0 36.6564 2.70506 43.6418 8.11518 49.0515C10.7037 51.6251 13.823 53.634 17.4729 55.0784C20.0118 56.0579 22.6187 56.6991 25.2935 57.002L23.9821 55.6716C21.0743 52.7217 21.1084 47.973 24.0583 45.0653L24.1016 45.0229L5.03219 28.0954C5.65151 27.9654 9.71185 24.5831 14.4288 20.6539L14.4289 20.6539C21.1468 15.0579 29.1965 8.35244 30.5348 8.35244C31.6095 8.35244 32.6876 8.35294 33.8378 8.35349C33.9884 8.35356 34.1402 8.35363 34.2934 8.3537V0ZM79.2414 56.4571H69.2752L69.8083 55.9162C72.7161 52.9663 72.6819 48.2177 69.732 45.3099C66.7821 42.4021 62.0335 42.4363 59.1257 45.3862L48.2129 56.4571H47.7126V0.718479H63.1198V41.3309H74.7761H78.0222H81.509H83V56.4571L79.2414 56.4571Z" fill="white"/>
</svg>