<svg width="1032" height="1032" viewBox="0 0 1032 1032" fill="none" xmlns="http://www.w3.org/2000/svg">
<circle cx="516" cy="516" r="516" fill="white"/>
<path d="M225.8 583.616C225.8 589.893 219.117 593.912 213.573 590.969L97.3118 529.262C94.0433 527.527 92 524.129 92 520.429V512.752C92 509.052 94.0433 505.654 97.3118 503.919L213.573 442.212C219.117 439.269 225.8 443.288 225.8 449.564V449.564C225.8 452.663 224.079 455.505 221.333 456.941L102.613 519.014C100.792 519.966 98.6113 518.645 98.6113 516.59V516.59C98.6113 514.536 100.792 513.215 102.613 514.167L221.333 576.24C224.079 577.676 225.8 580.518 225.8 583.616V583.616Z" fill="#393D3A"/>
<path d="M806.2 583.616C806.2 589.893 812.883 593.912 818.427 590.969L934.688 529.262C937.957 527.527 940 524.129 940 520.429V512.752C940 509.052 937.957 505.654 934.688 503.919L818.427 442.212C812.883 439.269 806.2 443.288 806.2 449.564V449.564C806.2 452.663 807.921 455.505 810.667 456.941L929.387 519.014C931.208 519.966 933.389 518.645 933.389 516.59V516.59C933.389 514.536 931.208 513.215 929.387 514.167L810.667 576.24C807.921 577.676 806.2 580.518 806.2 583.616V583.616Z" fill="#393D3A"/>
<path d="M454.433 601C441.914 601 430.255 598.954 419.457 594.861C408.816 590.611 399.505 584.708 391.524 577.153C383.699 569.44 377.596 560.389 373.214 550C368.832 539.611 366.642 528.278 366.642 516C366.642 503.722 368.832 492.389 373.214 482C377.596 471.611 383.777 462.639 391.758 455.083C399.739 447.37 409.051 441.468 419.692 437.375C430.333 433.125 441.992 431 454.668 431C468.126 431 480.411 433.361 491.521 438.083C499.669 441.431 506.892 446.006 513.188 451.808C517.081 455.396 516.688 461.465 512.842 465.103L507.332 470.315C503.283 474.146 496.937 473.836 492.565 470.379C488.639 467.276 484.458 464.775 480.019 462.875C472.664 459.569 464.683 457.917 456.076 457.917C447.469 457.917 439.566 459.333 432.368 462.167C425.326 465 419.144 469.014 413.824 474.208C408.659 479.403 404.591 485.542 401.617 492.625C398.8 499.708 397.392 507.5 397.392 516C397.392 524.5 398.8 532.292 401.617 539.375C404.591 546.458 408.659 552.597 413.824 557.792C419.144 562.986 425.326 567 432.368 569.833C439.566 572.667 447.469 574.083 456.076 574.083C464.683 574.083 472.664 572.509 480.019 569.361C484.44 567.374 488.607 564.79 492.519 561.609C496.9 558.047 503.346 557.719 507.423 561.624L512.867 566.839C516.696 570.507 517.043 576.589 513.123 580.159C506.841 585.88 499.641 590.466 491.521 593.917C480.411 598.639 468.048 601 454.433 601Z" fill="#393D3A"/>
<path d="M558.929 598.639C553.406 598.639 548.929 594.162 548.929 588.639V443.361C548.929 437.838 553.406 433.361 558.929 433.361H569.445C574.968 433.361 579.445 437.838 579.445 443.361V562.667C579.445 568.19 583.922 572.667 589.445 572.667H655.358C660.881 572.667 665.358 577.144 665.358 582.667V588.639C665.358 594.162 660.881 598.639 655.358 598.639H558.929Z" fill="#393D3A"/>
<path d="M790 443L749 597" stroke="#393D3A" stroke-width="17" stroke-linecap="round"/>
</svg>
